<svg width="160" height="160" viewBox="0 0 160 160" fill="none" xmlns="http://www.w3.org/2000/svg">
<path d="M80 0C64.1775 0 48.7103 4.69192 35.5544 13.4824C22.3985 22.2729 12.1447 34.7672 6.08967 49.3853C0.0346614 64.0034 -1.5496 80.0887 1.53721 95.6072C4.62403 111.126 12.2433 125.38 23.4315 136.569C34.6197 147.757 48.8743 155.376 64.3928 158.463C79.9113 161.55 95.9966 159.965 110.615 153.91C125.233 147.855 137.727 137.602 146.518 124.446C155.308 111.29 160 95.8225 160 80C159.975 58.7903 151.539 38.4565 136.541 23.459C121.544 8.46145 101.21 0.0249086 80 0ZM80 150.588C66.039 150.588 52.3915 146.448 40.7833 138.692C29.1751 130.936 20.1277 119.911 14.785 107.013C9.44235 94.1146 8.04447 79.9217 10.7681 66.2289C13.4918 52.5361 20.2147 39.9585 30.0866 30.0866C39.9585 20.2146 52.5362 13.4918 66.2289 10.7681C79.9217 8.04443 94.1147 9.44232 107.013 14.785C119.911 20.1276 130.936 29.1751 138.692 40.7833C146.448 52.3914 150.588 66.039 150.588 80C150.567 98.7148 143.124 116.657 129.891 129.89C116.657 143.124 98.7148 150.567 80 150.588ZM109.804 54.9019V92.549C109.804 93.7971 109.308 94.994 108.426 95.8766C107.543 96.7591 106.346 97.2549 105.098 97.2549C103.85 97.2549 102.653 96.7591 101.77 95.8766C100.888 94.994 100.392 93.7971 100.392 92.549V66.2667L58.2275 108.424C57.3354 109.255 56.1555 109.707 54.9364 109.686C53.7172 109.664 52.554 109.17 51.6918 108.308C50.8296 107.446 50.3357 106.283 50.3142 105.064C50.2927 103.845 50.7453 102.665 51.5765 101.773L93.7333 59.6078H67.451C66.2029 59.6078 65.006 59.112 64.1234 58.2295C63.2409 57.347 62.7451 56.15 62.7451 54.9019C62.7451 53.6539 63.2409 52.4569 64.1234 51.5744C65.006 50.6919 66.2029 50.1961 67.451 50.1961H105.098C106.346 50.1961 107.543 50.6919 108.426 51.5744C109.308 52.4569 109.804 53.6539 109.804 54.9019Z" fill="#DE3F3B"/>
</svg>
