<svg width="20" height="20" viewBox="0 0 20 20" fill="none" xmlns="http://www.w3.org/2000/svg">
<path d="M18.1255 15.625C18.1255 15.7908 18.0596 15.9497 17.9424 16.0669C17.8252 16.1841 17.6663 16.25 17.5005 16.25C17.3347 16.25 17.1758 16.1841 17.0586 16.0669C16.9413 15.9497 16.8755 15.7908 16.8755 15.625C16.8734 13.8023 16.1484 12.0548 14.8596 10.7659C13.5707 9.47706 11.8232 8.75206 10.0005 8.75H4.00909L6.69268 11.4328C6.80996 11.5501 6.87584 11.7091 6.87584 11.875C6.87584 12.0408 6.80996 12.1999 6.69268 12.3172C6.5754 12.4345 6.41634 12.5003 6.25049 12.5003C6.08464 12.5003 5.92558 12.4345 5.8083 12.3172L2.0583 8.56718C2.00019 8.50914 1.95409 8.44021 1.92264 8.36433C1.89119 8.28846 1.875 8.20713 1.875 8.125C1.875 8.04286 1.89119 7.96153 1.92264 7.88566C1.95409 7.80979 2.00019 7.74085 2.0583 7.68281L5.8083 3.93281C5.92558 3.81553 6.08464 3.74965 6.25049 3.74965C6.41634 3.74965 6.5754 3.81553 6.69268 3.93281C6.80996 4.05008 6.87584 4.20914 6.87584 4.375C6.87584 4.54085 6.80996 4.69991 6.69268 4.81718L4.00909 7.5H10.0005C12.1547 7.50227 14.22 8.35903 15.7432 9.88227C17.2665 11.4055 18.1232 13.4708 18.1255 15.625Z" fill="white"/>
</svg>
