<svg width="56" height="56" viewBox="0 0 56 56" fill="none" xmlns="http://www.w3.org/2000/svg">
<g id="Frame">
<path id="Vector" d="M36.75 21V31.5C36.75 31.9641 36.5656 32.4092 36.2374 32.7374C35.9093 33.0656 35.4641 33.25 35 33.25C34.5359 33.25 34.0908 33.0656 33.7626 32.7374C33.4344 32.4092 33.25 31.9641 33.25 31.5V25.2241L22.2381 36.2381C22.0755 36.4007 21.8825 36.5297 21.6701 36.6177C21.4576 36.7057 21.23 36.751 21 36.751C20.7701 36.751 20.5424 36.7057 20.3299 36.6177C20.1175 36.5297 19.9245 36.4007 19.7619 36.2381C19.5993 36.0755 19.4703 35.8825 19.3823 35.6701C19.2943 35.4576 19.249 35.2299 19.249 35C19.249 34.7701 19.2943 34.5424 19.3823 34.3299C19.4703 34.1175 19.5993 33.9245 19.7619 33.7619L30.7759 22.75H24.5C24.0359 22.75 23.5908 22.5656 23.2626 22.2374C22.9344 21.9092 22.75 21.4641 22.75 21C22.75 20.5359 22.9344 20.0908 23.2626 19.7626C23.5908 19.4344 24.0359 19.25 24.5 19.25H35C35.4641 19.25 35.9093 19.4344 36.2374 19.7626C36.5656 20.0908 36.75 20.5359 36.75 21ZM50.75 28C50.75 32.4995 49.4157 36.898 46.9159 40.6392C44.4161 44.3804 40.8631 47.2964 36.7061 49.0183C32.549 50.7402 27.9748 51.1907 23.5617 50.3129C19.1486 49.4351 15.095 47.2683 11.9133 44.0867C8.73169 40.905 6.56496 36.8514 5.68715 32.4383C4.80933 28.0252 5.25986 23.451 6.98175 19.294C8.70364 15.1369 11.6196 11.5839 15.3608 9.08407C19.102 6.58426 23.5005 5.25 28 5.25C34.0317 5.25637 39.8146 7.65528 44.0797 11.9204C48.3447 16.1854 50.7436 21.9683 50.75 28ZM47.25 28C47.25 24.1927 46.121 20.4709 44.0058 17.3053C41.8906 14.1396 38.8841 11.6723 35.3667 10.2153C31.8492 8.75833 27.9787 8.37712 24.2445 9.11988C20.5104 9.86265 17.0804 11.696 14.3882 14.3882C11.696 17.0804 9.86266 20.5104 9.11989 24.2445C8.37713 27.9786 8.75834 31.8492 10.2153 35.3667C11.6723 38.8841 14.1396 41.8906 17.3053 44.0058C20.4709 46.121 24.1927 47.25 28 47.25C33.1037 47.2442 37.9966 45.2142 41.6054 41.6054C45.2142 37.9966 47.2442 33.1036 47.25 28Z" fill="#DE3F3B"/>
</g>
</svg>
